<mxfile host="app.diagrams.net" agent="Mozilla/5.0 (Windows NT 10.0; Win64; x64) AppleWebKit/537.36 (KHTML, like Gecko) Chrome/131.0.0.0 Safari/537.36" version="24.8.6">
  <diagram name="PÃ¡gina-1" id="6hE0eWu4QvplKjMu0OEx">
    <mxGraphModel dx="683" dy="368" grid="1" gridSize="10" guides="1" tooltips="1" connect="1" arrows="1" fold="1" page="1" pageScale="1" pageWidth="827" pageHeight="1169" math="0" shadow="0">
      <root>
        <mxCell id="0" />
        <mxCell id="1" parent="0" />
        <mxCell id="VtB-TeHQ7SXRlFBVVymZ-1" value="Usuario" style="whiteSpace=wrap;html=1;align=center;fillColor=#fff2cc;strokeColor=#d6b656;" vertex="1" parent="1">
          <mxGeometry x="120" y="110" width="100" height="40" as="geometry" />
        </mxCell>
        <mxCell id="VtB-TeHQ7SXRlFBVVymZ-2" value="Lancamento" style="whiteSpace=wrap;html=1;align=center;fillColor=#fff2cc;strokeColor=#d6b656;" vertex="1" parent="1">
          <mxGeometry x="400" y="110" width="100" height="40" as="geometry" />
        </mxCell>
        <mxCell id="VtB-TeHQ7SXRlFBVVymZ-3" value="Projeto: Livro Caixa&lt;div&gt;DER Conceitual&lt;/div&gt;" style="text;html=1;align=center;verticalAlign=middle;whiteSpace=wrap;rounded=0;" vertex="1" parent="1">
          <mxGeometry x="230" y="50" width="150" height="40" as="geometry" />
        </mxCell>
        <mxCell id="VtB-TeHQ7SXRlFBVVymZ-4" value="id" style="ellipse;whiteSpace=wrap;html=1;align=center;fontStyle=4;fillColor=#dae8fc;strokeColor=#6c8ebf;" vertex="1" parent="1">
          <mxGeometry x="70" y="170" width="70" height="30" as="geometry" />
        </mxCell>
        <mxCell id="VtB-TeHQ7SXRlFBVVymZ-5" value="id" style="ellipse;whiteSpace=wrap;html=1;align=center;fontStyle=4;fillColor=#d5e8d4;strokeColor=#82b366;" vertex="1" parent="1">
          <mxGeometry x="320" y="170" width="70" height="30" as="geometry" />
        </mxCell>
        <mxCell id="VtB-TeHQ7SXRlFBVVymZ-6" value="nome" style="ellipse;whiteSpace=wrap;html=1;align=center;fillColor=#ffe6cc;strokeColor=#d79b00;" vertex="1" parent="1">
          <mxGeometry x="130" y="200" width="70" height="30" as="geometry" />
        </mxCell>
        <mxCell id="VtB-TeHQ7SXRlFBVVymZ-7" value="email" style="ellipse;whiteSpace=wrap;html=1;align=center;fillColor=#ffe6cc;strokeColor=#d79b00;" vertex="1" parent="1">
          <mxGeometry x="200" y="170" width="70" height="30" as="geometry" />
        </mxCell>
        <mxCell id="VtB-TeHQ7SXRlFBVVymZ-8" value="&lt;span style=&quot;border-bottom: 1px dotted&quot;&gt;usuario&lt;/span&gt;" style="ellipse;whiteSpace=wrap;html=1;align=center;fillColor=#fff2cc;strokeColor=#d6b656;" vertex="1" parent="1">
          <mxGeometry x="334" y="210" width="70" height="30" as="geometry" />
        </mxCell>
        <mxCell id="VtB-TeHQ7SXRlFBVVymZ-9" value="descricao" style="ellipse;whiteSpace=wrap;html=1;align=center;fillColor=#ffe6cc;strokeColor=#d79b00;" vertex="1" parent="1">
          <mxGeometry x="380" y="240" width="70" height="30" as="geometry" />
        </mxCell>
        <mxCell id="VtB-TeHQ7SXRlFBVVymZ-10" value="tipo" style="ellipse;whiteSpace=wrap;html=1;align=center;fillColor=#ffe6cc;strokeColor=#d79b00;" vertex="1" parent="1">
          <mxGeometry x="460" y="240" width="70" height="30" as="geometry" />
        </mxCell>
        <mxCell id="VtB-TeHQ7SXRlFBVVymZ-11" value="valor" style="ellipse;whiteSpace=wrap;html=1;align=center;fillColor=#ffe6cc;strokeColor=#d79b00;" vertex="1" parent="1">
          <mxGeometry x="500" y="210" width="70" height="30" as="geometry" />
        </mxCell>
        <mxCell id="VtB-TeHQ7SXRlFBVVymZ-12" value="data" style="ellipse;whiteSpace=wrap;html=1;align=center;fillColor=#ffe6cc;strokeColor=#d79b00;" vertex="1" parent="1">
          <mxGeometry x="520" y="170" width="70" height="30" as="geometry" />
        </mxCell>
        <mxCell id="VtB-TeHQ7SXRlFBVVymZ-14" value="N" style="rounded=0;orthogonalLoop=1;jettySize=auto;html=1;exitX=1;exitY=0.5;exitDx=0;exitDy=0;entryX=0;entryY=0.5;entryDx=0;entryDy=0;endArrow=none;endFill=0;" edge="1" parent="1" source="VtB-TeHQ7SXRlFBVVymZ-13" target="VtB-TeHQ7SXRlFBVVymZ-2">
          <mxGeometry relative="1" as="geometry" />
        </mxCell>
        <mxCell id="VtB-TeHQ7SXRlFBVVymZ-13" value="faz" style="shape=rhombus;perimeter=rhombusPerimeter;whiteSpace=wrap;html=1;align=center;fillColor=#e1d5e7;strokeColor=#9673a6;" vertex="1" parent="1">
          <mxGeometry x="274" y="112.5" width="60" height="35" as="geometry" />
        </mxCell>
        <mxCell id="VtB-TeHQ7SXRlFBVVymZ-15" value="1" style="rounded=0;orthogonalLoop=1;jettySize=auto;html=1;exitX=0;exitY=0.5;exitDx=0;exitDy=0;entryX=1;entryY=0.5;entryDx=0;entryDy=0;endArrow=none;endFill=0;" edge="1" parent="1" source="VtB-TeHQ7SXRlFBVVymZ-13" target="VtB-TeHQ7SXRlFBVVymZ-1">
          <mxGeometry relative="1" as="geometry" />
        </mxCell>
        <mxCell id="VtB-TeHQ7SXRlFBVVymZ-16" style="rounded=0;orthogonalLoop=1;jettySize=auto;html=1;exitX=0.5;exitY=1;exitDx=0;exitDy=0;entryX=0.5;entryY=0;entryDx=0;entryDy=0;endArrow=none;endFill=0;" edge="1" parent="1" source="VtB-TeHQ7SXRlFBVVymZ-2" target="VtB-TeHQ7SXRlFBVVymZ-5">
          <mxGeometry relative="1" as="geometry" />
        </mxCell>
        <mxCell id="VtB-TeHQ7SXRlFBVVymZ-17" style="rounded=0;orthogonalLoop=1;jettySize=auto;html=1;exitX=0.5;exitY=1;exitDx=0;exitDy=0;entryX=0.5;entryY=0;entryDx=0;entryDy=0;endArrow=none;endFill=0;" edge="1" parent="1" source="VtB-TeHQ7SXRlFBVVymZ-2" target="VtB-TeHQ7SXRlFBVVymZ-8">
          <mxGeometry relative="1" as="geometry" />
        </mxCell>
        <mxCell id="VtB-TeHQ7SXRlFBVVymZ-18" style="rounded=0;orthogonalLoop=1;jettySize=auto;html=1;exitX=0.5;exitY=1;exitDx=0;exitDy=0;entryX=0.5;entryY=0;entryDx=0;entryDy=0;endArrow=none;endFill=0;" edge="1" parent="1" source="VtB-TeHQ7SXRlFBVVymZ-2" target="VtB-TeHQ7SXRlFBVVymZ-9">
          <mxGeometry relative="1" as="geometry" />
        </mxCell>
        <mxCell id="VtB-TeHQ7SXRlFBVVymZ-19" style="rounded=0;orthogonalLoop=1;jettySize=auto;html=1;exitX=0.5;exitY=1;exitDx=0;exitDy=0;entryX=0.5;entryY=0;entryDx=0;entryDy=0;endArrow=none;endFill=0;" edge="1" parent="1" source="VtB-TeHQ7SXRlFBVVymZ-2" target="VtB-TeHQ7SXRlFBVVymZ-10">
          <mxGeometry relative="1" as="geometry" />
        </mxCell>
        <mxCell id="VtB-TeHQ7SXRlFBVVymZ-20" style="rounded=0;orthogonalLoop=1;jettySize=auto;html=1;exitX=0.5;exitY=1;exitDx=0;exitDy=0;entryX=0.5;entryY=0;entryDx=0;entryDy=0;endArrow=none;endFill=0;" edge="1" parent="1" source="VtB-TeHQ7SXRlFBVVymZ-2" target="VtB-TeHQ7SXRlFBVVymZ-11">
          <mxGeometry relative="1" as="geometry" />
        </mxCell>
        <mxCell id="VtB-TeHQ7SXRlFBVVymZ-21" style="rounded=0;orthogonalLoop=1;jettySize=auto;html=1;exitX=0.5;exitY=1;exitDx=0;exitDy=0;entryX=0.5;entryY=0;entryDx=0;entryDy=0;endArrow=none;endFill=0;" edge="1" parent="1" source="VtB-TeHQ7SXRlFBVVymZ-2" target="VtB-TeHQ7SXRlFBVVymZ-12">
          <mxGeometry relative="1" as="geometry" />
        </mxCell>
        <mxCell id="VtB-TeHQ7SXRlFBVVymZ-22" style="rounded=0;orthogonalLoop=1;jettySize=auto;html=1;exitX=0.5;exitY=1;exitDx=0;exitDy=0;entryX=0.5;entryY=0;entryDx=0;entryDy=0;endArrow=none;endFill=0;" edge="1" parent="1" source="VtB-TeHQ7SXRlFBVVymZ-1" target="VtB-TeHQ7SXRlFBVVymZ-6">
          <mxGeometry relative="1" as="geometry" />
        </mxCell>
        <mxCell id="VtB-TeHQ7SXRlFBVVymZ-23" style="rounded=0;orthogonalLoop=1;jettySize=auto;html=1;exitX=0.5;exitY=1;exitDx=0;exitDy=0;entryX=0.5;entryY=0;entryDx=0;entryDy=0;endArrow=none;endFill=0;" edge="1" parent="1" source="VtB-TeHQ7SXRlFBVVymZ-1" target="VtB-TeHQ7SXRlFBVVymZ-7">
          <mxGeometry relative="1" as="geometry" />
        </mxCell>
        <mxCell id="VtB-TeHQ7SXRlFBVVymZ-24" style="rounded=0;orthogonalLoop=1;jettySize=auto;html=1;exitX=0.5;exitY=1;exitDx=0;exitDy=0;entryX=0.5;entryY=0;entryDx=0;entryDy=0;endArrow=none;endFill=0;" edge="1" parent="1" source="VtB-TeHQ7SXRlFBVVymZ-1" target="VtB-TeHQ7SXRlFBVVymZ-4">
          <mxGeometry relative="1" as="geometry" />
        </mxCell>
      </root>
    </mxGraphModel>
  </diagram>
</mxfile>
